<svg width="258" height="267" viewBox="0 0 258 267" fill="none" xmlns="http://www.w3.org/2000/svg">
<path d="M254.748 107.485C255.566 109.778 256.322 112.003 257.139 114.468C257.323 115.108 257.448 115.507 257.551 116.028C257.569 116.311 257.608 116.472 257.629 116.769C257.727 117.541 257.842 118.175 257.927 118.963C257.934 119.741 257.972 120.364 257.984 121.109C257.979 121.391 258.002 121.553 257.993 121.871C257.984 122.77 258.007 123.513 257.996 124.416C257.986 125.559 258.007 126.541 257.997 127.691C257.964 135.856 257.963 143.852 257.918 151.964C257.886 152.238 257.898 152.399 257.91 152.56C257.52 154.556 257.13 156.552 256.657 158.773C256.558 159.155 256.543 159.312 256.528 159.469C256.381 159.871 256.235 160.272 256.131 160.799C255.909 161.412 255.644 161.899 255.276 162.575C255.035 163.12 254.896 163.477 254.757 163.833C254.119 164.907 253.481 165.98 252.815 167.171C251.624 168.704 250.463 170.118 249.154 171.684C248.712 172.168 248.417 172.5 248.013 172.868C247.521 173.272 247.139 173.641 246.655 174.044C246.354 174.276 246.155 174.475 245.843 174.703C245.318 175.082 244.907 175.432 244.508 175.796C244.521 175.81 244.504 175.776 244.392 175.795C243.994 176.051 243.707 176.288 243.297 176.553C241.328 177.541 239.482 178.502 237.505 179.457C236.734 179.686 236.095 179.921 235.332 180.147C235.052 180.185 234.896 180.232 234.61 180.274C233.983 180.411 233.485 180.553 232.987 180.695L232.827 180.639C232.827 180.639 232.662 180.682 232.452 180.743C231.642 180.952 231.048 181.179 230.439 181.231C229.456 181.315 228.464 181.284 227.358 181.271C227.081 181.263 226.922 181.285 226.608 181.276C225.827 181.266 225.2 181.285 224.406 181.272C218.43 181.263 212.622 181.287 206.654 181.279C205.628 181.269 204.762 181.29 203.735 181.278C202.596 181.267 201.616 181.289 200.493 181.279C199.959 181.27 199.569 181.291 199.013 181.28C197.146 181.263 195.446 181.277 193.693 181.245C193.642 181.198 193.503 181.209 193.494 181.061C193.45 180.421 193.415 179.93 193.418 179.273C193.456 172.139 193.456 165.171 193.456 157.944C194.887 157.944 196.129 157.944 197.536 157.976C199.164 157.987 200.627 157.965 202.255 157.975C203.881 157.986 205.342 157.965 206.952 157.976C207.606 157.986 208.112 157.964 208.784 157.973C210.531 157.982 212.113 157.96 213.856 157.971C214.998 157.981 215.979 157.958 217.128 157.968C220.402 158.003 223.509 158.031 226.615 157.998C228.235 157.98 229.818 157.732 231.27 156.64C232.099 155.895 232.806 155.181 233.6 154.385C234.418 153.226 234.972 152.084 235.06 150.667C235.082 150.521 235.068 150.461 235.098 150.236C235.173 149.408 235.231 148.747 235.231 148.085C235.237 139.893 235.237 131.702 235.23 123.51C235.23 123.032 235.157 122.554 235.15 121.927C235.126 121.271 235.069 120.766 235.027 120.127C233.88 115.681 231.307 113.416 227.089 113.138C225.536 113.035 223.968 113.164 222.286 113.148C222 113.135 221.836 113.162 221.505 113.148C218.646 113.103 215.951 113.072 213.257 113.101C211.467 113.12 209.679 113.225 207.748 113.249C207.218 113.249 206.83 113.291 206.281 113.302C204.879 113.34 203.638 113.408 202.289 113.45C202.041 113.457 201.899 113.491 201.617 113.498C201.213 113.549 200.949 113.627 200.587 113.648C200.345 113.628 200.201 113.666 199.957 113.675C199.511 113.689 199.164 113.731 198.663 113.751C193.799 114.437 189.059 114.991 184.383 115.885C168.829 118.857 155.187 125.709 143.599 136.533C139.759 140.12 136.098 143.898 132.346 147.579C125.819 153.983 118.924 159.932 111.1 164.728C109.46 165.733 107.829 166.754 106.194 167.769C105.456 168.127 104.719 168.486 103.76 168.942C100.227 170.548 96.9151 172.057 93.6032 173.565C93.0175 173.739 92.4318 173.913 91.6239 174.185C90.7032 174.547 90.0048 174.813 89.3064 175.078C88.5312 175.294 87.7559 175.51 86.7201 175.786C83.9993 176.519 81.539 177.191 79.0787 177.863C78.9223 177.884 78.7658 177.905 78.3757 177.962C77.7424 178.121 77.3427 178.244 76.7938 178.354C73.6222 178.852 70.6072 179.412 67.5756 179.86C64.7819 180.272 61.9703 180.562 59.0762 180.885C58.9278 180.885 58.8698 180.907 58.664 180.901C57.6438 180.962 56.7715 181.052 55.8165 181.105C55.7338 181.069 55.5782 181.16 55.4898 181.115C55.0799 181.119 54.7584 181.169 54.2811 181.189C53.3879 181.204 52.6505 181.248 51.9131 181.293C45.9794 181.28 40.0457 181.266 33.9445 181.283C31.078 181.112 28.3175 181.206 25.6907 180.658C13.7961 178.176 5.88007 171.04 1.69734 159.401C1.55095 159.037 1.49153 158.892 1.43735 158.612C1.21375 157.721 0.984899 156.963 0.773324 156.081C0.750952 155.798 0.711299 155.638 0.686746 155.331C0.472454 152.983 0.243063 150.782 0.0469975 148.413C0.05318 145.574 0.0260254 142.902 0.0322467 140.081C0.0431783 139.424 0.020734 138.916 0.0316933 138.252C0.0440251 137.356 0.0229535 136.615 0.00187636 135.874C0.0234737 133.807 0.0450713 131.739 0.0663532 129.349C0.0440252 128.283 0.0220127 127.54 0 126.797C0.0309571 124.61 0.0619142 122.422 0.107783 119.938C0.116024 119.372 0.10936 119.102 0.102696 118.832C0.204523 118.193 0.306355 117.553 0.440462 116.65C0.554599 115.862 0.636455 115.339 0.77421 114.672C1.17163 111.951 2.2381 109.638 3.34835 107.317C6.50591 100.717 11.3934 95.8807 17.9716 92.753C22.1366 90.7728 26.5648 89.8048 31.1636 89.7898C43.6721 89.7493 56.1809 89.7731 68.6895 89.7772C69.214 89.7774 69.7385 89.8351 70.4082 89.8746C70.4082 97.6544 70.4082 105.322 70.2565 113.028C69.4837 113.107 68.8625 113.148 68.1223 113.15C67.8398 113.134 67.6763 113.158 67.3467 113.144C61.4725 113.1 55.7645 113.088 50.0565 113.094C48.2568 113.096 46.4572 113.149 44.4979 113.14C43.3555 113.127 42.3727 113.152 41.224 113.14C38.0035 113.097 34.9484 113.062 31.8944 113.104C30.949 113.117 30.0066 113.34 28.9685 113.458C28.5906 113.578 28.3071 113.707 27.8884 113.866C24.1614 115.615 22.827 118.619 22.8374 122.433C22.8615 131.304 22.8492 140.175 22.8723 149.046C22.8741 149.755 23.0356 150.463 23.1248 151.311C23.686 153.672 24.7618 155.52 26.9391 156.731C28.2639 157.219 29.4916 157.82 30.7633 157.935C32.7188 158.112 34.7045 157.954 36.8448 157.971C40.287 157.98 43.5617 157.958 46.9897 157.965C47.7656 157.97 48.3882 157.945 49.1679 157.949C50.0668 157.933 50.8086 157.886 51.6634 157.872C52.0795 157.856 52.3825 157.809 52.8146 157.796C53.2038 157.779 53.4639 157.728 53.8889 157.704C58.4464 157.459 62.8332 157.137 67.2865 156.196C68.4221 155.984 69.4152 155.751 70.5042 155.531C70.6578 155.516 70.7156 155.487 70.8733 155.479C71.1678 155.449 71.3625 155.399 71.5571 155.35C86.6714 152.23 100.189 145.826 111.638 135.402C117.038 130.486 122.127 125.228 127.339 120.106C136.483 111.12 146.879 104.02 158.734 99.0858C166.846 95.7091 175.281 93.4927 183.915 91.9764C185.4 91.7156 186.891 91.4864 188.523 91.1958C189.257 91.0789 189.846 91.0089 190.644 90.9146C191.23 90.8369 191.607 90.7833 191.985 90.7296C192.477 90.677 192.97 90.6244 193.604 90.5238C196.392 90.3257 199.038 90.0798 201.687 90.0432C210.493 89.9214 219.303 89.6885 228.105 89.8633C234.254 89.9854 239.911 92.0614 244.904 95.7614C245.285 96.0444 245.672 96.3209 246.222 96.7565C248.188 98.76 249.989 100.607 251.79 102.455C251.835 102.566 251.879 102.677 252.038 102.944C252.853 104.181 253.553 105.261 254.253 106.342C254.253 106.342 254.237 106.432 254.287 106.567C254.433 106.822 254.53 106.941 254.626 107.061C254.647 107.179 254.668 107.298 254.748 107.485Z" fill="#008C77"/>
<path d="M170.141 13.5824C170.655 14.4956 171.17 15.4087 171.801 16.5113C172.149 17.1064 172.38 17.5121 172.611 17.9178C173.111 19.276 173.611 20.6343 174.173 22.1145C175.259 26.1199 175.554 30.0719 175.539 34.0813C175.488 47.3914 175.512 60.7018 175.507 74.012C175.507 74.4933 175.507 74.9746 175.507 75.6452C167.763 77.0813 160.318 79.4443 152.792 82.453C152.792 81.5113 152.792 80.8681 152.792 80.2248C152.787 64.2525 152.785 48.2801 152.77 32.3078C152.769 31.4655 152.768 30.5995 152.587 29.7849C151.691 25.7643 148.554 23.2322 144.384 23.2137C137.252 23.1821 130.119 23.2108 122.986 23.2152C121.837 23.2159 120.687 23.259 119.54 23.2182C115.12 23.0611 111.08 26.7333 111.086 31.755C111.097 40.9512 111.083 50.1474 111.084 59.3436C111.085 76.1024 111.077 92.8613 111.116 109.62C111.119 110.795 110.818 111.671 110.003 112.513C105.413 117.254 100.763 121.926 95.3272 125.715C93.2036 127.195 90.9852 128.538 88.6399 130.054C88.5127 129.491 88.4388 129.163 88.3612 128.545C88.3237 125.591 88.2899 122.927 88.301 120.1C88.3165 118.471 88.2871 117.006 88.3039 115.388C88.3183 114.49 88.2867 113.746 88.299 112.869C88.312 112.461 88.2811 112.186 88.2948 111.764C88.3094 111.11 88.2795 110.602 88.2948 109.934C88.3076 108.554 88.2752 107.335 88.2831 105.992C88.2955 105.699 88.2676 105.531 88.2873 105.198C88.3007 102.006 88.2665 98.9774 88.2732 95.7881C88.2857 94.6371 88.2575 93.6466 88.2755 92.4979C88.2928 91.2434 88.264 90.1472 88.276 88.9066C88.2887 88.3656 88.2606 87.9692 88.2787 87.4283C88.2932 86.7834 88.2615 86.283 88.2705 85.6185C88.2848 84.1032 88.2584 82.7519 88.2769 81.2866C88.2919 81.015 88.262 80.8573 88.2723 80.5634C88.2852 80.1468 88.2581 79.8666 88.2755 79.4723C88.2903 79.2002 88.2604 79.0424 88.2709 78.7178C88.2847 74.5391 88.2582 70.5272 88.2786 66.3532C88.2949 64.6126 88.2643 63.0341 88.2678 61.36C88.2792 61.2006 88.2565 61.1368 88.2808 60.9098C88.2959 58.9256 88.2639 57.1044 88.2658 55.1879C88.2768 55.0288 88.2541 54.9653 88.2767 54.787C88.2912 54.5137 88.2604 54.3552 88.2705 54.0432C88.2828 53.2582 88.2544 52.6266 88.2726 51.8428C88.2879 50.9523 88.2565 50.214 88.2656 49.3139C88.2807 48.0419 88.2553 46.9317 88.2769 45.6925C88.2917 45.2945 88.2596 45.0256 88.2687 44.6004C88.2828 43.6933 88.2555 42.9425 88.2752 42.0624C88.2906 41.6637 88.2592 41.3944 88.2676 41.0027C88.281 40.7129 88.2544 40.5456 88.2749 40.2262C88.2935 39.3363 88.2651 38.5985 88.279 37.7161C88.2941 37.1742 88.267 36.7769 88.2865 36.231C88.3005 35.465 88.2679 34.8473 88.2751 34.0759C88.2869 33.29 88.2588 32.6579 88.2763 31.8746C88.4029 29.7225 88.4683 27.7206 88.5804 25.7214C88.5984 25.4006 88.8249 25.0915 89.0424 24.6668C89.1621 23.9041 89.1943 23.2516 89.2264 22.599C89.9321 21.0214 90.6158 19.4335 91.3482 17.8684C92.6531 15.08 94.1013 12.3834 96.3861 10.2366C96.7179 9.92486 96.9546 9.51185 97.3848 8.98325C98.1827 8.21633 98.8312 7.61188 99.4797 7.00742C101.686 5.57516 103.893 4.14291 106.348 2.67131C107.314 2.36199 108.031 2.09201 108.749 1.82203C110.289 1.30322 111.81 0.713161 113.377 0.295068C114.183 0.0801571 115.07 0.174611 115.921 0.124143C116.582 0.084888 117.243 -0.00199787 117.904 3.50656e-05C127.959 0.0309139 138.015 0.072972 148.356 0.140275C148.808 0.167719 148.976 0.167304 149.144 0.166883C152.272 0.983376 155.453 1.6424 158.527 3.37118C161.785 5.06326 164.363 7.274 166.896 9.54353C167.658 10.5007 168.419 11.4579 169.312 12.5846C169.676 13.0302 169.908 13.3063 170.141 13.5824Z" fill="#008C77"/>
<path d="M107.311 186.732C108.555 186.156 109.697 185.664 111.082 185.066C111.082 186.348 111.081 187.414 111.082 188.481C111.09 203.847 111.083 219.214 111.131 234.58C111.136 235.885 111.315 237.256 111.746 238.479C112.884 241.714 115.827 243.76 119.242 243.77C127.704 243.795 136.167 243.792 144.629 243.742C149.027 243.715 152.549 240.257 152.78 235.873C152.812 235.269 152.804 234.663 152.803 234.058C152.8 207.5 152.802 180.941 152.766 154.382C152.765 153.198 153.124 152.407 153.972 151.575C158.479 147.153 163.242 143.066 168.811 140.038C170.869 138.919 173.067 138.057 175.334 137.211C175.512 138.669 175.556 139.994 175.558 141.476C175.544 142.497 175.571 143.36 175.558 144.389C175.545 146.865 175.572 149.175 175.558 151.646C175.544 152.909 175.57 154.012 175.556 155.281C175.51 162.003 175.501 168.558 175.504 175.114C175.505 176.193 175.563 177.272 175.552 178.503C175.537 179.279 175.565 179.904 175.551 180.695C175.538 182.928 175.566 184.996 175.553 187.23C175.539 189.705 175.568 192.015 175.554 194.491C175.509 196.276 175.493 197.895 175.504 199.514C175.528 202.988 175.566 206.462 175.557 210.103C175.513 213.691 175.496 217.114 175.508 220.537C175.518 223.175 175.566 225.814 175.597 228.453C175.566 230.007 175.548 231.561 175.5 233.115C175.441 234.969 175.356 236.823 175.269 238.919C175.27 239.22 175.285 239.281 175.299 239.341C175.175 239.978 175.05 240.616 174.905 241.477C174.898 241.761 174.91 241.822 174.923 241.883C174.807 242.286 174.69 242.689 174.542 243.303C174.522 243.575 174.533 243.637 174.543 243.699C173.59 246.032 172.792 248.445 171.649 250.68C169.449 254.984 166.221 258.448 162.147 261.388C161.9 261.599 161.816 261.696 161.733 261.794C161.733 261.794 161.764 261.801 161.647 261.812C161.221 262.059 160.912 262.295 160.603 262.531C159.732 262.97 158.861 263.409 157.794 263.947C157.481 264.143 157.363 264.239 157.246 264.336C156.305 264.691 155.364 265.045 154.193 265.457C153.833 265.595 153.702 265.676 153.571 265.758C152.647 265.971 151.723 266.184 150.595 266.454C150.333 266.538 150.275 266.566 150.217 266.593C150.155 266.581 150.093 266.569 149.818 266.564C149.32 266.679 149.035 266.786 148.75 266.893C139.327 266.926 129.904 266.945 120.482 266.999C116.896 267.02 113.373 266.7 109.954 265.533C106.824 264.465 103.932 262.926 101.017 261.136C99.7762 260.127 98.6549 259.167 97.3816 258.048C96.046 256.501 94.8623 255.113 93.6787 253.726C93.6089 253.447 93.5392 253.169 93.3543 252.72C92.95 252.119 92.6608 251.687 92.3716 251.256C92.3513 251.196 92.331 251.135 92.2288 250.909C92.0538 250.64 91.9607 250.537 91.8677 250.433C90.9097 247.548 89.9517 244.663 88.9541 241.532C88.858 241.142 88.8015 240.999 88.745 240.855C88.6908 240.318 88.6367 239.78 88.5675 239.02C88.5296 238.74 88.5067 238.682 88.4838 238.624C88.4754 238.198 88.467 237.773 88.4437 237.098C88.3801 236.593 88.3313 236.337 88.2825 236.081C88.3045 235.454 88.3265 234.826 88.3021 234.048C88.2844 233.507 88.3132 233.118 88.3395 232.441C88.3073 231.645 88.2774 231.138 88.2476 230.63C88.2846 229.192 88.3522 227.755 88.3531 226.317C88.3562 221.33 88.3361 216.344 88.3224 211.026C88.2944 207.292 88.2686 203.887 88.2874 200.328C88.3017 199.312 88.2714 198.453 88.2411 197.593C88.2733 196.271 88.3055 194.949 88.4623 193.433C89.0468 193.114 89.5058 192.985 89.9669 192.864C94.0542 191.795 98.136 190.709 102.091 188.917C102.376 188.825 102.556 188.729 102.858 188.617C103.128 188.531 103.275 188.46 103.422 188.389C104.685 187.865 105.948 187.34 107.311 186.732Z" fill="#008C77"/>
</svg>